<mxfile host="app.diagrams.net" agent="Mozilla/5.0 (Windows NT 10.0; Win64; x64) AppleWebKit/537.36 (KHTML, like Gecko) Chrome/130.0.0.0 Safari/537.36" version="24.8.2">
  <diagram id="C5RBs43oDa-KdzZeNtuy" name="Page-1">
    <mxGraphModel dx="1434" dy="760" grid="1" gridSize="10" guides="1" tooltips="1" connect="1" arrows="1" fold="1" page="1" pageScale="1" pageWidth="827" pageHeight="1169" math="0" shadow="0">
      <root>
        <mxCell id="WIyWlLk6GJQsqaUBKTNV-0" />
        <mxCell id="WIyWlLk6GJQsqaUBKTNV-1" parent="WIyWlLk6GJQsqaUBKTNV-0" />
        <mxCell id="waiY0RKv8Eu2LXPm9uWd-0" value="Початок" style="rounded=1;whiteSpace=wrap;html=1;" vertex="1" parent="WIyWlLk6GJQsqaUBKTNV-1">
          <mxGeometry x="325" y="10" width="120" height="60" as="geometry" />
        </mxCell>
        <mxCell id="waiY0RKv8Eu2LXPm9uWd-2" value="a1, a2, a3" style="shape=parallelogram;perimeter=parallelogramPerimeter;whiteSpace=wrap;html=1;fixedSize=1;" vertex="1" parent="WIyWlLk6GJQsqaUBKTNV-1">
          <mxGeometry x="310" y="90" width="150" height="60" as="geometry" />
        </mxCell>
        <mxCell id="waiY0RKv8Eu2LXPm9uWd-3" value="A = a1+a2+a3" style="rounded=0;whiteSpace=wrap;html=1;" vertex="1" parent="WIyWlLk6GJQsqaUBKTNV-1">
          <mxGeometry x="320" y="170" width="120" height="60" as="geometry" />
        </mxCell>
        <mxCell id="waiY0RKv8Eu2LXPm9uWd-4" value="i1=0" style="rounded=0;whiteSpace=wrap;html=1;" vertex="1" parent="WIyWlLk6GJQsqaUBKTNV-1">
          <mxGeometry x="320" y="250" width="120" height="60" as="geometry" />
        </mxCell>
        <mxCell id="waiY0RKv8Eu2LXPm9uWd-8" style="edgeStyle=orthogonalEdgeStyle;rounded=0;orthogonalLoop=1;jettySize=auto;html=1;entryX=0.5;entryY=0;entryDx=0;entryDy=0;" edge="1" parent="WIyWlLk6GJQsqaUBKTNV-1" source="waiY0RKv8Eu2LXPm9uWd-5" target="waiY0RKv8Eu2LXPm9uWd-9">
          <mxGeometry relative="1" as="geometry">
            <mxPoint x="530" y="510" as="targetPoint" />
          </mxGeometry>
        </mxCell>
        <mxCell id="waiY0RKv8Eu2LXPm9uWd-5" value="" style="rhombus;whiteSpace=wrap;html=1;" vertex="1" parent="WIyWlLk6GJQsqaUBKTNV-1">
          <mxGeometry x="305" y="420" width="150" height="80" as="geometry" />
        </mxCell>
        <mxCell id="waiY0RKv8Eu2LXPm9uWd-7" value="array=[]" style="rounded=0;whiteSpace=wrap;html=1;" vertex="1" parent="WIyWlLk6GJQsqaUBKTNV-1">
          <mxGeometry x="320" y="330" width="120" height="60" as="geometry" />
        </mxCell>
        <mxCell id="waiY0RKv8Eu2LXPm9uWd-13" value="" style="edgeStyle=orthogonalEdgeStyle;rounded=0;orthogonalLoop=1;jettySize=auto;html=1;" edge="1" parent="WIyWlLk6GJQsqaUBKTNV-1" source="waiY0RKv8Eu2LXPm9uWd-9" target="waiY0RKv8Eu2LXPm9uWd-12">
          <mxGeometry relative="1" as="geometry" />
        </mxCell>
        <mxCell id="waiY0RKv8Eu2LXPm9uWd-9" value="i2=0" style="rounded=0;whiteSpace=wrap;html=1;" vertex="1" parent="WIyWlLk6GJQsqaUBKTNV-1">
          <mxGeometry x="480" y="480" width="120" height="60" as="geometry" />
        </mxCell>
        <mxCell id="waiY0RKv8Eu2LXPm9uWd-15" value="" style="edgeStyle=orthogonalEdgeStyle;rounded=0;orthogonalLoop=1;jettySize=auto;html=1;entryX=0.5;entryY=0;entryDx=0;entryDy=0;" edge="1" parent="WIyWlLk6GJQsqaUBKTNV-1" source="waiY0RKv8Eu2LXPm9uWd-12" target="waiY0RKv8Eu2LXPm9uWd-14">
          <mxGeometry relative="1" as="geometry" />
        </mxCell>
        <mxCell id="waiY0RKv8Eu2LXPm9uWd-12" value="" style="rhombus;whiteSpace=wrap;html=1;rounded=0;" vertex="1" parent="WIyWlLk6GJQsqaUBKTNV-1">
          <mxGeometry x="470" y="560" width="140" height="80" as="geometry" />
        </mxCell>
        <mxCell id="waiY0RKv8Eu2LXPm9uWd-17" value="" style="edgeStyle=orthogonalEdgeStyle;rounded=0;orthogonalLoop=1;jettySize=auto;html=1;entryX=0.5;entryY=0;entryDx=0;entryDy=0;" edge="1" parent="WIyWlLk6GJQsqaUBKTNV-1" source="waiY0RKv8Eu2LXPm9uWd-14" target="waiY0RKv8Eu2LXPm9uWd-16">
          <mxGeometry relative="1" as="geometry" />
        </mxCell>
        <mxCell id="waiY0RKv8Eu2LXPm9uWd-14" value="i3=1" style="whiteSpace=wrap;html=1;rounded=0;" vertex="1" parent="WIyWlLk6GJQsqaUBKTNV-1">
          <mxGeometry x="480" y="660" width="120" height="60" as="geometry" />
        </mxCell>
        <mxCell id="waiY0RKv8Eu2LXPm9uWd-19" value="" style="edgeStyle=orthogonalEdgeStyle;rounded=0;orthogonalLoop=1;jettySize=auto;html=1;" edge="1" parent="WIyWlLk6GJQsqaUBKTNV-1" source="waiY0RKv8Eu2LXPm9uWd-16" target="waiY0RKv8Eu2LXPm9uWd-18">
          <mxGeometry relative="1" as="geometry" />
        </mxCell>
        <mxCell id="waiY0RKv8Eu2LXPm9uWd-16" value="" style="rhombus;whiteSpace=wrap;html=1;rounded=0;" vertex="1" parent="WIyWlLk6GJQsqaUBKTNV-1">
          <mxGeometry x="475" y="740" width="130" height="80" as="geometry" />
        </mxCell>
        <mxCell id="waiY0RKv8Eu2LXPm9uWd-18" value="count" style="whiteSpace=wrap;html=1;rounded=0;" vertex="1" parent="WIyWlLk6GJQsqaUBKTNV-1">
          <mxGeometry x="480" y="850" width="120" height="60" as="geometry" />
        </mxCell>
      </root>
    </mxGraphModel>
  </diagram>
</mxfile>
